# Blender v2.79 (sub 0) OBJ File: 'Arc2.blend'
# www.blender.org
mtllib Arc2.mtl
o Circle
v -1.502515 0.211218 0.214652
v -1.625932 0.237206 0.146300
v -1.580464 0.237206 0.325212
v -1.495544 0.237206 0.502867
v -1.371181 0.237206 0.654404
v -1.219645 0.237206 0.778767
v -1.046758 0.237206 0.871176
v -0.859164 0.237206 0.928082
v -0.664074 0.237206 0.947297
v -0.468984 0.237206 0.928082
v -0.281390 0.237206 0.871176
v -0.108504 0.237206 0.778766
v 0.043033 0.237206 0.654403
v 0.167396 0.237206 0.502867
v 0.259806 0.237206 0.329980
v 0.349434 0.236755 0.077735
v 0.205391 0.199515 0.127794
v -1.626694 0.235192 0.037491
v -1.609506 0.237206 0.230010
v -1.540639 0.237206 0.415964
v -1.433362 0.237206 0.578635
v -1.295413 0.237206 0.716585
v -1.133201 0.237206 0.824972
v -0.952961 0.237206 0.899629
v -0.761619 0.237206 0.937690
v -0.566529 0.237206 0.937689
v -0.375187 0.237206 0.899629
v -0.194947 0.237206 0.824971
v -0.032735 0.237206 0.716585
v 0.105214 0.237206 0.578635
v 0.213601 0.237206 0.416423
v 0.298730 0.237190 0.229374
v 0.356338 0.234019 0.007449
v -1.324997 0.177771 0.409751
v -1.223797 0.166267 0.516200
v -1.110100 0.161856 0.621133
v -0.969421 0.161856 0.696328
v -0.816776 0.161856 0.742632
v -0.658030 0.161856 0.758267
v -0.499284 0.161856 0.742632
v -0.346639 0.161856 0.696327
v -0.205960 0.161856 0.621133
v -0.082655 0.161856 0.519938
v -1.275091 0.171410 0.462432
v -1.171752 0.161856 0.570536
v -1.039760 0.161856 0.658731
v -0.893098 0.161856 0.719480
v -0.737403 0.161856 0.750450
v -0.578657 0.161856 0.750449
v -0.422962 0.161856 0.719480
v -0.276300 0.161856 0.658730
v -0.144307 0.161856 0.570536
v -0.032057 0.161856 0.458285
v -1.572017 0.225672 0.107010
v -1.636341 0.237206 0.061446
v -1.418061 0.194155 0.309990
v -1.538905 0.218888 0.162245
v -1.636341 0.236876 0.041192
v -1.461694 0.202847 0.262527
v -1.603234 0.231337 0.060749
v -1.633144 0.237206 0.092181
v -1.373065 0.185431 0.358577
v 0.298583 0.218352 0.027418
v 0.059449 0.177957 0.332371
v 0.333765 0.227337 0.001391
v 0.020265 0.171274 0.386705
v 0.258609 0.208950 0.064432
v 0.135428 0.189678 0.225099
v 0.357618 0.235843 0.033264
v 0.329883 0.237099 0.143037
v 0.347660 0.231133 -0.001969
v 0.279429 0.213658 0.044262
v 0.097861 0.184146 0.278485
v 0.316862 0.222971 0.012582
v 0.234406 0.204239 0.091294
v 0.171801 0.194716 0.173614
v -1.520710 0.215053 0.188448
v -1.617719 0.237206 0.188155
v -1.560552 0.237206 0.370588
v -1.464453 0.237206 0.540751
v -1.333297 0.237206 0.685494
v -1.176423 0.237206 0.801869
v -0.999859 0.237206 0.885403
v -0.810392 0.237206 0.932886
v -0.615301 0.237206 0.942493
v -0.422085 0.237206 0.913856
v -0.238169 0.237206 0.848074
v -0.070620 0.237206 0.747675
v 0.074124 0.237206 0.616519
v 0.190498 0.237206 0.459645
v 0.279268 0.237198 0.279677
v 0.353526 0.236299 0.055499
v -1.631518 0.236034 0.039341
v -1.594985 0.237206 0.277611
v -1.518092 0.237206 0.459416
v -1.402272 0.237206 0.616520
v -1.257529 0.237206 0.747676
v -1.089979 0.237206 0.848074
v -0.906063 0.237206 0.913856
v -0.712847 0.237206 0.942493
v -0.517756 0.237206 0.932886
v -0.328289 0.237206 0.885403
v -0.151725 0.237206 0.801869
v 0.005149 0.237206 0.685494
v 0.136305 0.237206 0.540751
v 0.236703 0.237206 0.373201
v 0.314307 0.237145 0.186206
v 0.351999 0.232576 0.002740
v -1.300044 0.174591 0.436091
v -1.197775 0.164061 0.543368
v -1.074930 0.161856 0.639932
v -0.931260 0.161856 0.707904
v -0.777089 0.161856 0.746541
v -0.618343 0.161856 0.754358
v -0.461123 0.161856 0.731056
v -0.311469 0.161856 0.677529
v -0.175134 0.161856 0.595834
v -0.057356 0.161856 0.489112
v -1.249444 0.168839 0.489316
v -1.140926 0.161856 0.595835
v -1.004591 0.161856 0.677529
v -0.854937 0.161856 0.731056
v -0.697716 0.161856 0.754358
v -0.538971 0.161856 0.746541
v -0.384800 0.161856 0.707904
v -0.241130 0.161856 0.639932
v -0.113481 0.161856 0.545237
v -1.482104 0.207033 0.238589
v -1.587625 0.228505 0.083879
v -1.634743 0.237206 0.076814
v -1.395563 0.189793 0.334283
v -1.555461 0.222280 0.134627
v -1.636341 0.237041 0.051319
v -1.439877 0.198501 0.286259
v -1.614964 0.233265 0.049120
v -1.629538 0.237206 0.119241
v -1.349031 0.181601 0.384164
v -0.005896 0.166565 0.422495
v 0.289006 0.216005 0.035840
v 0.078655 0.181051 0.305428
v 0.325314 0.225154 0.006987
v 0.039857 0.174616 0.359538
v 0.246508 0.206594 0.077863
v 0.153615 0.192197 0.199357
v 0.356978 0.234931 0.020356
v 0.339659 0.236927 0.110386
v 0.340712 0.229235 -0.000289
v 0.269019 0.211304 0.054347
v 0.116645 0.186912 0.251792
v 0.307723 0.220662 0.020000
v 0.219899 0.201877 0.109544
v 0.188596 0.197115 0.150704
vn 0.0173 -0.9658 0.2585
usemtl None
s off
f 57//1 77//1 1//1 128//1 59//1 134//1 56//1 131//1 62//1 137//1 34//1 109//1 44//1 119//1 35//1 110//1 45//1 120//1 36//1 111//1 46//1 121//1 37//1 112//1 47//1 122//1 38//1 113//1 48//1 123//1 39//1 114//1 49//1 124//1 40//1 115//1 50//1 125//1 41//1 116//1 51//1 126//1 42//1 117//1 52//1 127//1 43//1 118//1 53//1 138//1 66//1 142//1 64//1 140//1 73//1 149//1 68//1 144//1 76//1 152//1 17//1 151//1 75//1 143//1 67//1 148//1 72//1 139//1 63//1 150//1 74//1 141//1 65//1 147//1 71//1 108//1 33//1 145//1 69//1 92//1 16//1 146//1 70//1 107//1 32//1 91//1 15//1 106//1 31//1 90//1 14//1 105//1 30//1 89//1 13//1 104//1 29//1 88//1 12//1 103//1 28//1 87//1 11//1 102//1 27//1 86//1 10//1 101//1 26//1 85//1 9//1 100//1 25//1 84//1 8//1 99//1 24//1 83//1 7//1 98//1 23//1 82//1 6//1 97//1 22//1 81//1 5//1 96//1 21//1 80//1 4//1 95//1 20//1 79//1 3//1 94//1 19//1 78//1 2//1 136//1 61//1 130//1 55//1 133//1 58//1 93//1 18//1 135//1 60//1 129//1 54//1 132//1
